<?xml version='1.0' encoding='UTF-8'?>
<svg viewBox="12 5 120 36"
  id="Layer_1" data-name="Layer 1"
  xmlns="http://www.w3.org/2000/svg" xmlns:d="http://www.mathworks.com/blockgraphics"
  d:options="PreserveAspect:On;Resize:FitToBlock;Rotate:Off;Frame:Rectangle;ScalingOnResizeMax:5.0;">
<defs><style>.cls-1{fill:#333;}</style></defs><path class="cls-1" d="M23.5,19.31c0-.13.06-.2.19-.2a1.48,1.48,0,0,0,.65-.16.82.82,0,0,0,.34-.55L26,13.15a.74.74,0,0,0,0-.2c0-.07-.05-.12-.14-.14a2.49,2.49,0,0,0-.45,0h-.16l-.08,0a.1.1,0,0,1,0-.09c0-.09,0-.14.06-.16a.57.57,0,0,1,.22,0H26.8a.5.5,0,0,1,.23,0s0,.08,0,.19l.58,5.72,3.46-5.76a.38.38,0,0,1,.14-.16.59.59,0,0,1,.23,0h1.45a.1.1,0,0,1,.07,0,.1.1,0,0,1,0,.09c0,.08,0,.13-.07.15a.62.62,0,0,1-.24,0,1.58,1.58,0,0,0-.61.07.42.42,0,0,0-.2.27l-1.37,5.53a1.16,1.16,0,0,0,0,.27.15.15,0,0,0,0,.1s.06.05.15.07a2.37,2.37,0,0,0,.42,0h.17a.15.15,0,0,1,.07,0,.17.17,0,0,1,0,.1c0,.12-.06.18-.19.18H30.6c-.27,0-.46,0-.59,0s-.33,0-.59,0h-.58c-.09,0-.14,0-.14-.12a.19.19,0,0,1,.06-.17.54.54,0,0,1,.22,0,1.64,1.64,0,0,0,.63-.07.48.48,0,0,0,.2-.35l1.44-5.78h0l-3.8,6.33c-.07.13-.15.2-.25.2a.13.13,0,0,1-.1,0,.12.12,0,0,1-.05-.07.88.88,0,0,1,0-.14L26.4,13v0L25,18.4a1,1,0,0,0,0,.26.53.53,0,0,0,0,.14.61.61,0,0,0,.07.14.51.51,0,0,0,.18.12,1.06,1.06,0,0,0,.34.05c.13,0,.19.05.19.14a.16.16,0,0,1-.18.18h-.49c-.23,0-.4,0-.51,0s-.27,0-.49,0h-.48C23.54,19.43,23.5,19.39,23.5,19.31Z"/><path class="cls-1" d="M33.07,18a3.39,3.39,0,0,1,.74-2.08,2.09,2.09,0,0,1,1.6-1,.91.91,0,0,1,.88.66,1.83,1.83,0,0,1,.34-.43c.15-.14.25-.22.3-.22S37,15,37,15s0,0,0,.08l-1.39,5.57v.07a.92.92,0,0,0,0,.15.24.24,0,0,0,0,.13.24.24,0,0,0,.13.07l.37,0q.24,0,.24.12c0,.13-.06.2-.19.2l-.51,0h-1l-.51,0c-.08,0-.13,0-.13-.12s0-.15.06-.17a.42.42,0,0,1,.18,0,1.17,1.17,0,0,0,.57-.08A.77.77,0,0,0,35,20.6l.4-1.59a1.6,1.6,0,0,1-1.06.53,1.09,1.09,0,0,1-.91-.45A1.83,1.83,0,0,1,33.07,18Zm.71.44a1.56,1.56,0,0,0,.12.62.44.44,0,0,0,.43.29,1.13,1.13,0,0,0,.78-.42,1.74,1.74,0,0,0,.48-.7l.48-2a.34.34,0,0,0,0-.13,1.17,1.17,0,0,0-.2-.65.58.58,0,0,0-.5-.29.92.92,0,0,0-.62.32,2.61,2.61,0,0,0-.51.8A8.15,8.15,0,0,0,34,17.34,5.28,5.28,0,0,0,33.78,18.4Z"/><path class="cls-1" d="M34.57,13.35a.66.66,0,0,1,.2-.44.62.62,0,0,1,.45-.2.41.41,0,0,1,.32.13.43.43,0,0,1,.12.31.62.62,0,0,1-.2.44.66.66,0,0,1-.45.2.41.41,0,0,1-.31-.12A.41.41,0,0,1,34.57,13.35Zm1.82,0a.62.62,0,0,1,.2-.43.62.62,0,0,1,.45-.2.43.43,0,0,1,.31.12.42.42,0,0,1,.14.32.6.6,0,0,1-.2.43.66.66,0,0,1-.46.2.39.39,0,0,1-.31-.13A.44.44,0,0,1,36.39,13.35Z"/><path class="cls-1" d="M48.17,16.88c0,.09-.06.2-.32.2H44.91V20c0,.27-.13.31-.2.31s-.21,0-.21-.32v-.08a.13.13,0,0,0,0-.05V17.07h-3c-.25,0-.3-.11-.3-.2s0-.2.32-.2h2.94V13.88a.1.1,0,0,0,0,0v-.09c0-.26.11-.32.21-.32s.2,0,.2.32v2.94h3C48.11,16.68,48.17,16.79,48.17,16.88Z"/><path class="cls-1" d="M53.85,16.93a4.41,4.41,0,0,1,.64-2.26,5.14,5.14,0,0,1,1.63-1.77,3.62,3.62,0,0,1,2-.66,1.74,1.74,0,0,1,1.56.87l.64-.76a.27.27,0,0,1,.16-.11c.08,0,.11,0,.11.1a.44.44,0,0,1,0,.15L60,15a.37.37,0,0,1-.06.16.17.17,0,0,1-.12,0c-.1,0-.15,0-.15-.1a.83.83,0,0,1,0-.12c0-.06,0-.15,0-.25s0-.18,0-.26a2.32,2.32,0,0,0-.36-1.31,1.2,1.2,0,0,0-1.1-.55,2.64,2.64,0,0,0-1.27.36,3.66,3.66,0,0,0-1.16,1A5.15,5.15,0,0,0,55,15.7a6.44,6.44,0,0,0-.27,1.62,2,2,0,0,0,.52,1.51,1.7,1.7,0,0,0,1.24.51,2.5,2.5,0,0,0,1.52-.6A3.46,3.46,0,0,0,59.14,17c0-.05.08-.08.17-.08s.16,0,.16.1a1.6,1.6,0,0,1-.21.64,6.14,6.14,0,0,1-.59.88,3.29,3.29,0,0,1-1,.81,2.7,2.7,0,0,1-1.32.34,2.35,2.35,0,0,1-1.79-.74A2.78,2.78,0,0,1,53.85,16.93Z"/><path class="cls-1" d="M60.72,18a3.34,3.34,0,0,1,.75-2.08,2.06,2.06,0,0,1,1.6-1,.91.91,0,0,1,.87.66,2.13,2.13,0,0,1,.34-.43c.15-.14.25-.22.3-.22s.11,0,.11.07,0,0,0,.08l-1.39,5.57v.07a.92.92,0,0,0,0,.15.24.24,0,0,0,0,.13.24.24,0,0,0,.14.07l.36,0q.24,0,.24.12c0,.13-.06.2-.19.2l-.51,0h-1l-.5,0c-.09,0-.14,0-.14-.12s0-.15.06-.17a.42.42,0,0,1,.18,0,1.17,1.17,0,0,0,.57-.08.77.77,0,0,0,.19-.41L63,19a1.6,1.6,0,0,1-1.06.53,1.09,1.09,0,0,1-.91-.45A1.83,1.83,0,0,1,60.72,18Zm.71.44a1.56,1.56,0,0,0,.12.62.45.45,0,0,0,.44.29,1.13,1.13,0,0,0,.77-.42,1.74,1.74,0,0,0,.48-.7l.49-2a.79.79,0,0,0,0-.13,1.19,1.19,0,0,0-.21-.65.58.58,0,0,0-.49-.29.92.92,0,0,0-.63.32,2.61,2.61,0,0,0-.51.8,8.15,8.15,0,0,0-.33,1.06A5.28,5.28,0,0,0,61.43,18.4Z"/><path class="cls-1" d="M63.1,13.35a.61.61,0,0,1,.2-.44.62.62,0,0,1,.45-.2.42.42,0,0,1,.32.13.43.43,0,0,1,.12.31.59.59,0,0,1-.21.44.62.62,0,0,1-.44.2.45.45,0,0,1-.32-.12A.44.44,0,0,1,63.1,13.35Z"/><path class="cls-1" d="M76.69,16.88c0,.09,0,.2-.32.2H73.44V20c0,.27-.13.31-.21.31s-.2,0-.2-.32v-.08a.2.2,0,0,1,0-.05V17.07h-3c-.25,0-.31-.11-.31-.2s.06-.2.32-.2h3V13.88a.1.1,0,0,1,0,0v-.09c0-.28.13-.32.2-.32s.21.06.21.32v2.94h2.94C76.65,16.68,76.69,16.81,76.69,16.88Z"/><path class="cls-1" d="M81.48,19.31a.19.19,0,0,1,.06-.17.61.61,0,0,1,.22,0A1.74,1.74,0,0,0,82.4,19a.51.51,0,0,0,.19-.35L84,13.15a.74.74,0,0,0,0-.2c0-.07,0-.12-.14-.14a2.41,2.41,0,0,0-.45,0h-.16l-.08,0a.12.12,0,0,1,0-.09.17.17,0,0,1,.19-.19H84l.61,0,.61,0h.6c.09,0,.14,0,.14.13s0,.13-.06.15a.65.65,0,0,1-.25,0,1.84,1.84,0,0,0-.6.06.33.33,0,0,0-.2.24L84,16.47l3.62-3c.23-.18.34-.34.34-.46s-.09-.2-.27-.21-.14,0-.14-.12.07-.19.2-.19h.54l.55,0,.36,0h.34a.11.11,0,0,1,.12.12.18.18,0,0,1-.19.19,3.21,3.21,0,0,0-1.6.84l-1.89,1.57,1.33,3.53a.59.59,0,0,0,.22.31.76.76,0,0,0,.39.08c.13,0,.19,0,.19.13s-.06.19-.18.19h-.45a4.67,4.67,0,0,0-.47,0c-.13,0-.32,0-.57,0h-.56c-.1,0-.14,0-.14-.13a.17.17,0,0,1,.19-.19c.35,0,.52-.11.52-.33a.77.77,0,0,0-.06-.21l-1.06-2.84-1.44,1.19-.34,1.37a4.1,4.1,0,0,0-.13.63.22.22,0,0,0,0,.1s.07.05.16.07a2.25,2.25,0,0,0,.41,0h.17a.19.19,0,0,1,.08,0,.17.17,0,0,1,0,.1c0,.12-.07.18-.2.18h-.6c-.28,0-.48,0-.62,0s-.34,0-.61,0h-.59Q81.48,19.43,81.48,19.31Z"/><path class="cls-1" d="M89.78,18a3.34,3.34,0,0,1,.75-2.08,2.09,2.09,0,0,1,1.6-1,.91.91,0,0,1,.88.66,1.83,1.83,0,0,1,.34-.43c.14-.14.25-.22.3-.22s.11,0,.11.07,0,0,0,.08l-1.39,5.57,0,.07v.15a.24.24,0,0,0,0,.13.24.24,0,0,0,.13.07l.36,0c.17,0,.25,0,.25.12a.18.18,0,0,1-.2.2l-.5,0h-1l-.51,0c-.08,0-.13,0-.13-.12s0-.15.06-.17a.42.42,0,0,1,.18,0,1.23,1.23,0,0,0,.57-.08.77.77,0,0,0,.19-.41L92.1,19a1.6,1.6,0,0,1-1.06.53,1.07,1.07,0,0,1-.91-.45A1.83,1.83,0,0,1,89.78,18Zm.72.44a1.56,1.56,0,0,0,.12.62.43.43,0,0,0,.43.29,1.13,1.13,0,0,0,.78-.42,1.6,1.6,0,0,0,.47-.7l.49-2a.34.34,0,0,0,0-.13,1.17,1.17,0,0,0-.2-.65.58.58,0,0,0-.5-.29.92.92,0,0,0-.62.32,2.44,2.44,0,0,0-.51.8,6.84,6.84,0,0,0-.33,1.06A5.28,5.28,0,0,0,90.5,18.4Z"/><path class="cls-1" d="M97.53,15.9c0-.08,0-.2.29-.2h6.23c.1,0,.38,0,.38.2s-.11.18-.33.18H97.81C97.57,16.08,97.53,16,97.53,15.9Z"/><path class="cls-1" d="M104.43,17.88c0,.12-.12.19-.35.19h-6.2c-.09,0-.35,0-.35-.18h0c0-.07,0-.19.28-.19h6.25C104.15,17.69,104.43,17.69,104.43,17.88Z"/><path class="cls-1" d="M109.27,19.31a.19.19,0,0,1,.06-.17.57.57,0,0,1,.22,0,1.74,1.74,0,0,0,.64-.07.51.51,0,0,0,.19-.35l1.38-5.54a.74.74,0,0,0,0-.2c0-.07,0-.12-.14-.14a2.49,2.49,0,0,0-.45,0h-.16l-.08,0a.13.13,0,0,1,0-.09c0-.09,0-.14.07-.16a.51.51,0,0,1,.21,0h3.17a1.82,1.82,0,0,1,1.25.4,1.27,1.27,0,0,1,.46,1,1.67,1.67,0,0,1-.54,1.17,2.75,2.75,0,0,1-1.43.76,1.83,1.83,0,0,1,1,.44,1.26,1.26,0,0,1,.4,1,2.05,2.05,0,0,1-.78,1.53,2.69,2.69,0,0,1-1.85.7h-3.51a.2.2,0,0,1-.08,0A.09.09,0,0,1,109.27,19.31Zm1.84-.45a.83.83,0,0,0,0,.13.19.19,0,0,0,0,.08l.08,0h1.49a1.77,1.77,0,0,0,1.37-.63,2.09,2.09,0,0,0,.57-1.42,1.53,1.53,0,0,0,0-.3,2.14,2.14,0,0,0-.12-.36.68.68,0,0,0-.31-.34,1.07,1.07,0,0,0-.55-.14h-1.76l-.71,2.84Zm.79-3.17h1.35a1.8,1.8,0,0,0,1.39-.61,1.85,1.85,0,0,0,.57-1.29,1.53,1.53,0,0,0,0-.3,1.13,1.13,0,0,0-.13-.32.63.63,0,0,0-.3-.28,1.12,1.12,0,0,0-.5-.11H113a.91.91,0,0,0-.36.05c-.05,0-.1.12-.14.29Z"/><path class="cls-1" d="M116.63,16.49a.84.84,0,0,1,0-.18,2.1,2.1,0,0,1,.14-.39,5,5,0,0,1,.25-.46,1.21,1.21,0,0,1,.37-.38.93.93,0,0,1,.5-.16.75.75,0,0,1,.56.23.86.86,0,0,1,.22.61,1.64,1.64,0,0,1-.14.54,8,8,0,0,0-.59,2.23c0,.52.19.78.55.78a1.14,1.14,0,0,0,.94-.59,1.3,1.3,0,0,0,.14-.33l.75-3c.06-.25.19-.37.4-.37a.25.25,0,0,1,.21.08.28.28,0,0,1,.07.19l0,.06-.73,2.93a2.38,2.38,0,0,0-.07.56c0,.3.08.45.26.45s.48-.4.68-1.21c0-.11,0-.17.08-.19s.06,0,.12,0,.15,0,.15.1a1.5,1.5,0,0,1,0,.18c0,.11-.07.24-.12.4a2.18,2.18,0,0,1-.16.42.83.83,0,0,1-.74.57.8.8,0,0,1-.82-.62,1.39,1.39,0,0,1-1.13.62,1.19,1.19,0,0,1-.81-.28,1.16,1.16,0,0,1-.33-.91,7.1,7.1,0,0,1,.53-2,3.6,3.6,0,0,0,.25-.91c0-.19-.08-.29-.23-.29-.41,0-.72.42-1,1.27a.31.31,0,0,1-.06.14.17.17,0,0,1-.12,0C116.68,16.6,116.63,16.56,116.63,16.49Z"/><path class="cls-1" d="M28.27,28.73a1.37,1.37,0,0,1,.05-.18,1.88,1.88,0,0,1,.14-.39,5,5,0,0,1,.25-.46,1.12,1.12,0,0,1,.37-.38.85.85,0,0,1,.5-.16.77.77,0,0,1,.56.23.85.85,0,0,1,.22.6,1.63,1.63,0,0,1-.14.55,8,8,0,0,0-.59,2.22c0,.53.18.79.55.79a1,1,0,0,0,.71-.31,1.4,1.4,0,0,0,.37-.59l.75-3c.06-.24.19-.37.4-.37a.26.26,0,0,1,.21.09.26.26,0,0,1,.07.19.28.28,0,0,1,0,.06l0,.08-1,4a3,3,0,0,1-.85,1.43,1.94,1.94,0,0,1-1.39.63,1.05,1.05,0,0,1-.71-.24.83.83,0,0,1-.27-.65.71.71,0,0,1,.11-.41.44.44,0,0,1,.21-.19l.2,0a.36.36,0,0,1,.24.09.28.28,0,0,1,.11.24.48.48,0,0,1-.12.3.51.51,0,0,1-.33.19q-.09,0-.09,0a.33.33,0,0,0,.06.13.48.48,0,0,0,.2.2.71.71,0,0,0,.39.1,1.32,1.32,0,0,0,.93-.48,3.72,3.72,0,0,0,.72-1.62,1.28,1.28,0,0,1-.92.36,1.15,1.15,0,0,1-.81-.29,1.13,1.13,0,0,1-.33-.9,7,7,0,0,1,.53-2,3.43,3.43,0,0,0,.24-.91c0-.2-.07-.29-.22-.29-.41,0-.72.42-.95,1.27a.31.31,0,0,1-.06.14s-.06,0-.12,0S28.27,28.8,28.27,28.73Z"/><path class="cls-1" d="M43.43,30.11c0,.13-.12.2-.35.2h-6.2c-.08,0-.35,0-.35-.19s0-.19.28-.19h6.25C43.15,29.93,43.43,29.93,43.43,30.11Z"/><path class="cls-1" d="M36.53,28.13c0-.07,0-.19.29-.19h6.23c.1,0,.38,0,.38.19s-.11.19-.33.19H36.81C36.57,28.32,36.53,28.2,36.53,28.13Z"/><path class="cls-1" d="M48.28,31.55c0-.09,0-.15.06-.17a.51.51,0,0,1,.21,0,1.55,1.55,0,0,0,.61-.07.53.53,0,0,0,.19-.36l1.37-5.46a.85.85,0,0,0,0-.24.2.2,0,0,0,0-.09s-.06,0-.15-.05a2,2,0,0,0-.4,0H50A.11.11,0,0,1,50,25a.12.12,0,0,1,0-.09.18.18,0,0,1,.06-.16.57.57,0,0,1,.22,0H55l.08,0s0,0,0,.08a.36.36,0,0,0,0,.15l-.24,1.8a1.39,1.39,0,0,1,0,.15.13.13,0,0,1-.05.06l-.12,0q-.18,0-.18-.12l0-.17a6.59,6.59,0,0,0,.07-.67,1,1,0,0,0-.27-.79,1.72,1.72,0,0,0-1.05-.23h-1.2a.87.87,0,0,0-.35,0,.46.46,0,0,0-.14.26L50.9,28h.8a1.31,1.31,0,0,0,.83-.2,1.48,1.48,0,0,0,.37-.78.58.58,0,0,1,.07-.18.17.17,0,0,1,.12,0c.1,0,.15,0,.15.11a.78.78,0,0,1,0,.14l-.55,2.24a.58.58,0,0,1-.07.18.17.17,0,0,1-.12,0c-.1,0-.16,0-.16-.12a.41.41,0,0,1,0-.15,2.39,2.39,0,0,0,.08-.5.35.35,0,0,0-.15-.32,1.16,1.16,0,0,0-.62-.11h-.85l-.63,2.51a1.1,1.1,0,0,0,0,.25.39.39,0,0,0,0,.13s.09.05.2.08a3.42,3.42,0,0,0,.53,0h.25a.11.11,0,0,1,.08,0,.11.11,0,0,1,0,.09c0,.12-.08.19-.22.19l-.69,0H49l-.61,0Q48.28,31.67,48.28,31.55Z"/><path class="cls-1" d="M55.36,30.2a3.34,3.34,0,0,1,.75-2.08,2.07,2.07,0,0,1,1.6-1,.89.89,0,0,1,.87.66,2.2,2.2,0,0,1,.35-.43c.14-.15.24-.22.3-.22s.11,0,.11.07a.54.54,0,0,1,0,.08l-1.39,5.57,0,.07a.86.86,0,0,0,0,.15.29.29,0,0,0,0,.12s.06.05.14.07a1.6,1.6,0,0,0,.36,0c.16,0,.25,0,.25.12a.18.18,0,0,1-.2.2l-.51,0h-1l-.5,0c-.09,0-.13,0-.13-.13s0-.14.06-.16a.42.42,0,0,1,.18,0,1.39,1.39,0,0,0,.57-.08.85.85,0,0,0,.19-.41l.4-1.59a1.62,1.62,0,0,1-1.07.53,1.09,1.09,0,0,1-.91-.45A1.83,1.83,0,0,1,55.36,30.2Zm.71.44a1.56,1.56,0,0,0,.13.62.43.43,0,0,0,.43.29,1.13,1.13,0,0,0,.78-.42,1.8,1.8,0,0,0,.47-.7l.49-2a.33.33,0,0,0,0-.14,1.23,1.23,0,0,0-.2-.64.57.57,0,0,0-.5-.29.91.91,0,0,0-.63.32,2.5,2.5,0,0,0-.51.8,7,7,0,0,0-.32,1.06A4.79,4.79,0,0,0,56.07,30.64Z"/><path class="cls-1" d="M70,29.12c0,.09-.06.2-.32.2H66.78v2.95c0,.27-.13.31-.21.31s-.21-.06-.21-.32a.34.34,0,0,1,0-.09V29.31h-3c-.26,0-.31-.11-.31-.2s0-.2.32-.2h2.94V26.07a.25.25,0,0,1,0-.08c0-.27.11-.32.21-.32s.21,0,.21.32v2.94h2.94C70,28.92,70,29,70,29.12Z"/><path class="cls-1" d="M75.72,29.17a4.58,4.58,0,0,1,.62-2.26A5.06,5.06,0,0,1,78,25.14a3.65,3.65,0,0,1,2-.66,1.71,1.71,0,0,1,1.54.87l.64-.76a.27.27,0,0,1,.16-.11c.08,0,.12,0,.12.1a.78.78,0,0,1,0,.14l-.62,2.48a.52.52,0,0,1-.07.15s-.06,0-.12,0-.15,0-.15-.11a.87.87,0,0,1,0-.11c0-.07,0-.15,0-.25s0-.18,0-.26a2.39,2.39,0,0,0-.35-1.31,1.21,1.21,0,0,0-1.1-.55,2.58,2.58,0,0,0-1.26.36,3.66,3.66,0,0,0-1.16,1,5.46,5.46,0,0,0-.81,1.74,6.77,6.77,0,0,0-.26,1.61,2.1,2.1,0,0,0,.52,1.5,1.73,1.73,0,0,0,1.29.53,2,2,0,0,0,1.39-.52,1.44,1.44,0,0,0,.3-.4c0-.12.13-.43.25-.91a2.22,2.22,0,0,0,.08-.35.12.12,0,0,0,0-.1.14.14,0,0,0-.08-.05l-.18,0-.44,0H79.6c-.18,0-.26,0-.26-.11a.19.19,0,0,1,.21-.21l.66,0h1.18l.49,0A.12.12,0,0,1,82,29q0,.12-.06.15a.44.44,0,0,1-.19,0,.89.89,0,0,0-.32,0,.23.23,0,0,0-.14.1,1.38,1.38,0,0,0-.07.2l-.49,1.95c0,.11-.07.17-.12.17s-.13-.07-.22-.21a1.93,1.93,0,0,1-.21-.4,2.22,2.22,0,0,1-.79.58,2.63,2.63,0,0,1-1.19.26,2.36,2.36,0,0,1-1.8-.75A2.78,2.78,0,0,1,75.72,29.17Z"/><path class="cls-1" d="M83.17,30.2a3.34,3.34,0,0,1,.75-2.08,2.07,2.07,0,0,1,1.6-1,.89.89,0,0,1,.87.66,2.56,2.56,0,0,1,.34-.43c.15-.15.25-.22.31-.22s.11,0,.11.07a.18.18,0,0,1,0,.08l-1.39,5.57,0,.07a.86.86,0,0,0,0,.15.29.29,0,0,0,0,.12s.06.05.14.07a1.6,1.6,0,0,0,.36,0q.24,0,.24.12c0,.13-.06.2-.19.2l-.51,0h-1l-.5,0c-.09,0-.13,0-.13-.13s0-.14.06-.16a.42.42,0,0,1,.18,0,1.39,1.39,0,0,0,.57-.08.85.85,0,0,0,.19-.41l.4-1.59a1.62,1.62,0,0,1-1.07.53,1.09,1.09,0,0,1-.91-.45A1.83,1.83,0,0,1,83.17,30.2Zm.71.44a1.41,1.41,0,0,0,.13.62.43.43,0,0,0,.43.29,1.13,1.13,0,0,0,.78-.42,1.7,1.7,0,0,0,.47-.7l.49-2a.33.33,0,0,0,0-.14,1.23,1.23,0,0,0-.2-.64.57.57,0,0,0-.5-.29.87.87,0,0,0-.62.32,2.36,2.36,0,0,0-.52.8,7,7,0,0,0-.32,1.06A4.79,4.79,0,0,0,83.88,30.64Z"/><path class="cls-1" d="M85.55,25.59a.64.64,0,0,1,.2-.44.62.62,0,0,1,.45-.2.41.41,0,0,1,.32.13.41.41,0,0,1,.12.31.62.62,0,0,1-.2.44A.66.66,0,0,1,86,26a.43.43,0,0,1-.31-.12A.41.41,0,0,1,85.55,25.59Z"/><path class="cls-1" d="M99.15,29.12c0,.09-.06.2-.32.2H95.9v2.95c0,.27-.14.31-.21.31s-.21-.06-.21-.32a.34.34,0,0,1,0-.09V29.31H92.54c-.27,0-.31-.13-.31-.2s0-.2.32-.2h2.94V26.07a.25.25,0,0,1,0-.08c0-.27.11-.32.21-.32s.21,0,.21.32v2.94h2.94C99.09,28.92,99.15,29,99.15,29.12Z"/><path class="cls-1" d="M104,31.55c0-.09,0-.15.06-.17a.51.51,0,0,1,.21,0,1.67,1.67,0,0,0,.64-.07.54.54,0,0,0,.2-.36l1.38-5.53a1.68,1.68,0,0,0,0-.2c0-.07,0-.12-.15-.14a2.29,2.29,0,0,0-.44,0h-.16a.11.11,0,0,1-.08,0s0,0,0-.08,0-.15.06-.17a.54.54,0,0,1,.22,0h3.19a1.93,1.93,0,0,1,1.57.7,2.69,2.69,0,0,1,.59,1.8,4.52,4.52,0,0,1-.56,2.16A4.9,4.9,0,0,1,109.21,31a3.25,3.25,0,0,1-1.86.63h-3.29a.13.13,0,0,1-.08,0S104,31.59,104,31.55Zm1.87-.45a.39.39,0,0,0,0,.13.56.56,0,0,0,0,.07s0,0,.09,0h1.27a2.6,2.6,0,0,0,2-1,4.58,4.58,0,0,0,.87-1.77,7.53,7.53,0,0,0,.29-1.76,1.76,1.76,0,0,0-.47-1.36,1.63,1.63,0,0,0-1.16-.43h-1a.85.85,0,0,0-.35.05.48.48,0,0,0-.15.29L105.84,31A.66.66,0,0,0,105.82,31.1Z"/><path class="cls-1" d="M111.85,28.73a.84.84,0,0,1,0-.18,3,3,0,0,1,.15-.39,3.33,3.33,0,0,1,.24-.46,1.25,1.25,0,0,1,.38-.38.83.83,0,0,1,.5-.16.73.73,0,0,1,.55.23.81.81,0,0,1,.22.6,1.57,1.57,0,0,1-.13.55,7.67,7.67,0,0,0-.59,2.22c0,.53.18.79.55.79a1.15,1.15,0,0,0,.94-.59,1.3,1.3,0,0,0,.14-.33l.74-3c.06-.25.2-.38.4-.38a.27.27,0,0,1,.22.09.32.32,0,0,1,.07.19.15.15,0,0,1,0,.06l-.74,2.93a2.38,2.38,0,0,0-.07.56q0,.45.27.45c.25,0,.48-.41.68-1.21a.82.82,0,0,1,.07-.2.17.17,0,0,1,.12,0c.1,0,.16,0,.16.1s0,.07,0,.18-.06.24-.11.4-.11.3-.16.42a.83.83,0,0,1-.74.57.81.81,0,0,1-.82-.62,1.43,1.43,0,0,1-1.13.62,1.15,1.15,0,0,1-.81-.29,1.13,1.13,0,0,1-.33-.9,6.68,6.68,0,0,1,.53-2,3.43,3.43,0,0,0,.24-.91c0-.2-.07-.29-.22-.29-.41,0-.73.42-1,1.27a.31.31,0,0,1-.06.14s-.06,0-.13,0S111.85,28.8,111.85,28.73Z"/></svg>